<svg id="Layer_1" data-name="Layer 1" xmlns="http://www.w3.org/2000/svg" viewBox="0 0 339.5 116.68"><defs><style>.cls-1{fill:#c11c43;}.cls-2{fill:#313232;}</style></defs><path class="cls-1" d="M309.82,475.72a12.21,12.21,0,0,1-8.65,3.56c-8,0-12.18-5.59-12.21-12S293,455,301.17,455a12.25,12.25,0,0,1,8.65,3.56l-1.26,1.08a10.38,10.38,0,0,0-7.39-3c-6.92,0-10.48,4.88-10.45,10.58s3.6,10.38,10.45,10.38a10.63,10.63,0,0,0,7.43-3Z" transform="translate(-127.89 -362.61)"/><path class="cls-1" d="M316.56,455.27V479H314.9V455.27Z" transform="translate(-127.89 -362.61)"/><path class="cls-1" d="M322.45,470.67a8.51,8.51,0,1,1,17,0,8.51,8.51,0,1,1-17,0Zm15.4,0a6.9,6.9,0,1,0-13.78,0,6.89,6.89,0,1,0,13.78,0Z" transform="translate(-127.89 -362.61)"/><path class="cls-1" d="M358.75,479v-3a6.65,6.65,0,0,1-6,3.29c-4.48,0-7.57-2.74-7.57-7.39v-9.67h1.66v9.64c0,3.79,2.35,5.83,6,5.8a5.83,5.83,0,0,0,5.87-6.11v-9.33h1.66V479Z" transform="translate(-127.89 -362.61)"/><path class="cls-1" d="M383.13,455.27V479h-1.62v-3.69a7.9,7.9,0,0,1-7,4c-4.68,0-8.38-3.08-8.38-8.65s3.73-8.64,8.41-8.64a7.43,7.43,0,0,1,7,3.93V455.27Zm-15.36,15.36c0,4.65,3.09,7,6.85,7a7,7,0,0,0,0-14.08C370.86,463.58,367.77,465.92,367.77,470.63Z" transform="translate(-127.89 -362.61)"/><path class="cls-1" d="M404.1,466.23H418v1.66H404.1v9.36h15V479H402.3V455.27h16.38V457H404.1Z" transform="translate(-127.89 -362.61)"/><path class="cls-1" d="M443.67,479h-2.41l-8.21-9h-6.48v9h-1.83V455.27h10.45c5.15,0,7.76,3.7,7.8,7.39,0,3.87-2.51,7.26-7.7,7.26Zm-17.1-10.72H435c4.14,0,6-2.34,6-5.66a5.47,5.47,0,0,0-5.8-5.66h-8.62Z" transform="translate(-127.89 -362.61)"/><path class="cls-1" d="M451.07,470.8V479h-1.83V455.27h10.41c10.31,0,10.31,15.53,0,15.53Zm0-13.83v12.17h8.58c7.91,0,7.91-12.17,0-12.17Z" transform="translate(-127.89 -362.61)"/><path class="cls-2" d="M197.88,382.37c-9.08-.53-16.88,2.57-23.61,9.19a30.83,30.83,0,0,0-9.62,23.51c.11,8.66,3.42,16,9.83,22.34s13.79,9.19,22.12,9.08a31.4,31.4,0,0,0,18.06-5.88A30.89,30.89,0,0,0,226.2,425h-8.65c-4.17,8.76-11,13.25-20.63,13.36a23.37,23.37,0,0,1-16.13-5.88,22.4,22.4,0,0,1-7.8-15.17H227.7v-4.38q0-11.38-8.66-20.52A31.45,31.45,0,0,0,197.88,382.37ZM173,409.84a23.94,23.94,0,0,1,38.68-13.79,23.79,23.79,0,0,1,8,13.79Z" transform="translate(-127.89 -362.61)"/><polygon class="cls-2" points="126.74 69.78 107.29 21.48 98.42 21.48 121.72 80.46 112.53 103.65 121.29 103.65 155.81 21.48 147.26 21.48 126.74 69.78"/><path class="cls-2" d="M319.42,382.59A29.8,29.8,0,0,0,297,393.38V362.61h-8v51.82a29.69,29.69,0,0,0,9.4,22.76c6.52,6.41,14.11,9.51,22.87,9.19a30.3,30.3,0,0,0,21.58-9.72,32,32,0,0,0-.74-45A29.09,29.09,0,0,0,319.42,382.59Zm17.63,48.19a22.15,22.15,0,0,1-15.92,7.59A21.52,21.52,0,0,1,304,431.42a24.64,24.64,0,0,1,0-34.09A21.19,21.19,0,0,1,320,390.5a22.13,22.13,0,0,1,16.45,6.94,23,23,0,0,1,7,16.46A23.52,23.52,0,0,1,337.05,430.78Z" transform="translate(-127.89 -362.61)"/><path class="cls-2" d="M410.27,425c-4.17,8.76-11,13.25-20.62,13.36a23.41,23.41,0,0,1-16.14-5.88,22.44,22.44,0,0,1-7.8-15.17h54.71v-4.38q0-11.38-8.65-20.52a31.47,31.47,0,0,0-21.16-10.05c-9.08-.53-16.88,2.57-23.62,9.19a30.82,30.82,0,0,0-9.61,23.51c.1,8.66,3.42,16,9.83,22.34s13.78,9.19,22.12,9.08a31.42,31.42,0,0,0,18.06-5.88A30.94,30.94,0,0,0,418.93,425Zm-36.33-29.17a24.37,24.37,0,0,1,30.46.21,23.89,23.89,0,0,1,8,13.79h-46.7A23.27,23.27,0,0,1,373.94,395.84Z" transform="translate(-127.89 -362.61)"/><polygon class="cls-1" points="320.45 48.2 339.28 21.48 329.24 21.48 315.62 41.31 320.45 48.2"/><polygon class="cls-2" points="296.86 21.48 287.56 21.48 308.29 51.29 287.78 82.39 297.39 82.39 313.31 58.02 329.35 82.39 339.5 82.39 296.86 21.48"/><path class="cls-2" d="M166.76,383.52a31.75,31.75,0,0,0-5.76-.9c-9.05-.53-16.82,2.56-23.52,9.16-.37.36-.73.73-1.08,1.1v-8.55h-8.51V445h8.51V409.14a23.15,23.15,0,0,1,23.32-18.32,25.3,25.3,0,0,1,7,1.09Z" transform="translate(-127.89 -362.61)"/></svg>